# xmcd
#
# Track frame offsets: 
#        150
#        193010
#        220815
#        247385
#
# Disc length: 3979 seconds
#
# Revision: 1
# Processed by: cddbd v1.5.2PL0 Copyright (c) Steve Scherf et al.
# Submitted via: ExactAudioCopy v0.99pb5
#
DISCID=3c0f8904
DTITLE=Tete Montoliu - Tete Montoliu en el Teatro Real
DYEAR=1988
DGENRE=Jazz
TTITLE0=Monkiana
TTITLE1=Dont't smoke anymore, please
TTITLE2=Jo vull que m'acarcis
TTITLE3=Apartament 512
EXTD=
EXTT0=
EXTT1=
EXTT2=
EXTT3=
PLAYORDER=
